<svg width="17" height="16" viewBox="0 0 17 16" fill="none" xmlns="http://www.w3.org/2000/svg">
<path opacity="0.5" d="M16.7207 14.0706L13.5106 11.2465C14.5464 10.0823 15.1083 8.64459 15.1062 7.16452C15.1062 5.8464 14.6633 4.55789 13.8333 3.46191C13.0034 2.36594 11.8237 1.51173 10.4436 1.00731C9.06343 0.502888 7.54475 0.370908 6.07958 0.62806C4.61442 0.885212 3.26858 1.51995 2.21226 2.452C1.15594 3.38404 0.436573 4.57155 0.145134 5.86434C-0.146304 7.15713 0.00327262 8.49714 0.57495 9.71492C1.14663 10.9327 2.11473 11.9736 3.35684 12.7059C4.59894 13.4382 6.05926 13.829 7.55312 13.829C9.23054 13.8309 10.8599 13.335 12.1794 12.4212L15.38 15.2536C15.4678 15.3317 15.5722 15.3936 15.6873 15.4359C15.8023 15.4782 15.9257 15.5 16.0504 15.5C16.175 15.5 16.2984 15.4782 16.4135 15.4359C16.5285 15.3936 16.633 15.3317 16.7207 15.2536C16.8092 15.1761 16.8795 15.084 16.9274 14.9825C16.9753 14.881 17 14.7721 17 14.6621C17 14.5521 16.9753 14.4432 16.9274 14.3417C16.8795 14.2402 16.8092 14.1481 16.7207 14.0706ZM1.88828 7.16452C1.88828 6.17593 2.22052 5.20955 2.84298 4.38757C3.46544 3.56558 4.35017 2.92493 5.38528 2.54661C6.4204 2.1683 7.55941 2.06931 8.65828 2.26218C9.75715 2.45504 10.7665 2.93109 11.5588 3.63013C12.351 4.32916 12.8905 5.21979 13.1091 6.18938C13.3277 7.15898 13.2155 8.16399 12.7868 9.07732C12.358 9.99066 11.6319 10.7713 10.7003 11.3205C9.76876 11.8698 8.67352 12.1629 7.55312 12.1629C6.05072 12.1629 4.60984 11.6363 3.54748 10.6989C2.48511 9.76154 1.88828 8.49018 1.88828 7.16452Z" fill="black"/>
</svg>
